<svg xmlns="http://www.w3.org/2000/svg">
    <path fill-rule="evenodd" clip-rule="evenodd" d="M12 12a2 2 0 1 0 0-4 2 2 0 0 0 0 4Zm0 1.5a3.5 3.5 0 1 0 0-7 3.5 3.5 0 0 0 0 7Z" />
    <path fill-rule="evenodd" clip-rule="evenodd" d="M16.119 16.129c1.363-1.818 2.381-3.97 2.381-6.324C18.5 6.357 15.625 3.5 12 3.5S5.5 6.357 5.5 9.805c0 2.354 1.018 4.506 2.381 6.324 1.36 1.813 2.986 3.19 4.002 3.956a.19.19 0 0 0 .117.043.19.19 0 0 0 .117-.043c1.016-.767 2.641-2.143 4.002-3.956Zm-3.099 5.153C15.176 19.655 20 15.392 20 9.805 20 5.495 16.418 2 12 2S4 5.494 4 9.805c0 5.587 4.824 9.85 6.98 11.477.61.46 1.43.46 2.04 0Z" />
</svg>