<svg width="94" height="18" fill="none" xmlns="http://www.w3.org/2000/svg"><path d="M10.967 16.722v-2.899H3.3v-3.501h7.506V7.423H3.299v-3.27h7.668V1.256H0v15.467h10.967ZM21.052 17c3.415 0 5.367-1.878 6.482-3.803L24.7 11.83c-.651 1.275-2.045 2.25-3.648 2.25-2.812 0-4.857-2.157-4.857-5.079 0-2.922 2.045-5.078 4.857-5.078 1.603 0 2.997.997 3.648 2.249l2.834-1.391C26.442 2.855 24.467 1 21.052 1c-4.648 0-8.25 3.246-8.25 8s3.602 8 8.25 8Z" fill="#000B26" fill-opacity=".72"/><g clip-path="url(#a)"><path d="M32.542 13.1s1.262 3.784 5.992 4.9v-1.406c4.824 0 8.733-3.038 8.733-7.86a8.733 8.733 0 1 0-17.374 1.27c.576-3.699 3.781-6.584 8.423-7.503l.118-1.528c3.79.683 5.922 4.697 5.922 4.697S42.512 9 38.591 10.212l.007-1.933c-4.546 1.456-6.056 4.821-6.056 4.821Z" fill="url(#b)"/></g><path d="m62.081 16.71-3.485-5.89c1.673-.394 3.392-1.855 3.392-4.591 0-2.875-1.975-4.986-5.204-4.986h-7.25V16.71h3.3v-5.496h2.416l3.044 5.496h3.787Zm-5.785-8.394h-3.462V4.142h3.462c1.324 0 2.323.788 2.323 2.087 0 1.299-.999 2.087-2.323 2.087ZM71.459 16.988c4.716 0 6.994-2.62 6.994-6.47V1.244h-3.37v9.183c0 2.157-1.231 3.64-3.624 3.64-2.394 0-3.648-1.483-3.648-3.64V1.243h-3.346v9.299c0 3.803 2.277 6.446 6.994 6.446ZM87.013 16.988c4.182 0 6.203-2.133 6.203-4.962 0-5.774-8.899-4.127-8.899-6.585 0-.928.79-1.554 2.208-1.554 1.58 0 3.252.533 4.507 1.693l1.836-2.412c-1.534-1.414-3.578-2.156-6.041-2.156-3.648 0-5.879 2.133-5.879 4.707 0 5.82 8.923 3.942 8.923 6.678 0 .881-.883 1.716-2.696 1.716a6.802 6.802 0 0 1-4.926-2.087L80.46 14.53c1.44 1.461 3.578 2.458 6.553 2.458Z" fill="#000B26" fill-opacity=".72"/><defs><linearGradient id="b" x1="29.534" y1="-2.813" x2="43.034" y2="20.5" gradientUnits="userSpaceOnUse"><stop stop-color="#00D5C7"/><stop offset="1" stop-color="#FFEE57"/></linearGradient><clipPath id="a"><path fill="#fff" transform="translate(29.534)" d="M0 0h18v18H0z"/></clipPath></defs></svg>