<svg xmlns="http://www.w3.org/2000/svg">
    <path fill-rule="evenodd" clip-rule="evenodd" d="M6.532 3.613c-.318.224-.793.621-1.372 1.301-.67.788-1.075 1.725-1.056 2.667.045 2.18 1.055 5.23 4.07 8.246 3.087 3.087 6.149 4.081 8.318 4.088.895.003 1.783-.386 2.537-1.021.706-.595 1.121-1.09 1.355-1.423a.166.166 0 0 0-.05-.058l-3.316-2.654a.25.25 0 0 0-.333.019l-.633.633c-.862.862-2.249 1.094-3.32.36A17.11 17.11 0 0 1 8.23 11.27c-.738-1.077-.506-2.472.366-3.336l.625-.62a.25.25 0 0 0 .02-.333L6.58 3.656a.184.184 0 0 0-.048-.043Zm-2.514.329c.668-.785 1.246-1.274 1.678-1.574.742-.516 1.608-.209 2.055.35l2.66 3.326a1.75 1.75 0 0 1-.134 2.336L9.652 9c-.413.409-.47 1.006-.185 1.421a15.61 15.61 0 0 0 4.111 4.112c.412.282 1.004.226 1.413-.183l.633-.633a1.75 1.75 0 0 1 2.33-.129l3.318 2.654c.569.455.87 1.331.35 2.076-.31.444-.817 1.041-1.626 1.723-.953.802-2.172 1.379-3.509 1.374-2.62-.008-6.047-1.201-9.373-4.527-3.259-3.259-4.456-6.668-4.51-9.277-.028-1.395.569-2.676 1.414-3.669Z" fill="#000B26" fill-opacity=".32"/>
</svg>