<svg width="284" height="300" fill="none" xmlns="http://www.w3.org/2000/svg"><path d="M77.58 260.766c5.214 5.47 10.15 8.998 14.048 11.785 45.831 32.76 100.06 23.212 111.58 20.88 17.019-3.444 49.917-10.101 73.702-37.967 35.99-42.16 30.39-108.584 2.475-152.426-5.106-8.021-32.075-52.534-86.885-59.673-33.18-4.32-71.845 4.395-99.848 27.775-58.78 49.056-54.596 148.173-15.073 189.626Z" fill="#EFEFF4"/><path d="M220.406 173.745s-8.53-25.571 1.214-36.105c9.744-10.534 30.982-21.792 20.459-59.04-6.16-21.807-8.54-31.44-9.444-35.678a2.549 2.549 0 0 0-3.682-1.727c-10.587 5.571-44.412 25.503-44.408 52.77.005 32.325 35.861 79.78 35.861 79.78Z" fill="#5FE0BB"/><path opacity=".5" d="M223.332 54.103c-2.551 4.17-4.673 8.526-6.661 12.962l-.734 1.667-.7 1.68a96.49 96.49 0 0 0-1.359 3.381c-.891 2.261-1.68 4.56-2.481 6.86-.744 2.316-1.508 4.62-2.141 6.975-.691 2.334-1.27 4.697-1.852 7.061-1.058 4.76-2.066 9.504-2.618 14.394-.14 1.222-.28 2.444-.406 3.668l-.169 3.683-.084 1.843.025 1.841.074 3.682.28 3.669.14 1.833.234 1.82c.161 1.213.302 2.431.495 3.64l.66 3.61c1.918 9.603 4.957 18.918 9.455 27.663a1.054 1.054 0 0 0 1.926-.11 1.052 1.052 0 0 0-.027-.793l-.028-.06a110.032 110.032 0 0 1-4.883-13.4 129.105 129.105 0 0 1-3.29-13.888l-.574-3.517c-.16-1.176-.28-2.357-.432-3.533l-.212-1.767-.122-1.775-.228-3.552-.048-3.55-.029-1.776.078-1.772.147-3.542c.112-1.175.256-2.348.382-3.521.207-2.345.66-4.705 1.018-7.062.172-1.18.442-2.345.659-3.52.241-1.168.43-2.348.714-3.508.989-4.674 2.219-9.296 3.545-13.893.7-2.285 1.4-4.577 2.186-6.838.366-1.14.77-2.268 1.176-3.395l.606-1.691.642-1.68c1.696-4.48 3.563-8.92 5.67-13.2l.012-.02a.6.6 0 0 0-.69-.837.596.596 0 0 0-.356.261v.007Z" fill="#fff"/><path d="M188.268 265.607c-2.585 1.477 23.107-35.406 28.353-91.105 2.472-26.247.459-58.808 14.464-72.295 11.657-11.225 53.997-7.294 67.874-5.658a2.058 2.058 0 0 1 1.716 1.392 2.064 2.064 0 0 1-.532 2.145c-6.227 5.942-19.471 19.866-22.303 33.231-3.734 17.623-19.492 29.671-34.036 33.583-14.543 3.912-22.555 7.326-28.236 31.343-5.681 24.017-19.956 63.167-27.3 67.364Z" fill="#F1F1F1"/><path opacity=".5" d="M280.14 105.126a66.799 66.799 0 0 0-25.214 8.067 52.341 52.341 0 0 0-10.78 7.928c-3.22 3.12-6.051 6.681-8.221 10.626l-.806 1.482c-.265.497-.485 1.015-.728 1.521a38.474 38.474 0 0 0-.7 1.531l-.64 1.524a504.851 504.851 0 0 0-2.528 6.106 413.308 413.308 0 0 0-4.772 12.32c-3.056 8.26-5.847 16.627-8.12 25.16a.422.422 0 0 0 .598.475.42.42 0 0 0 .206-.234v-.012a355.672 355.672 0 0 1 4.369-12.418 579.734 579.734 0 0 1 4.682-12.309l2.428-6.12 2.494-6.094a387.302 387.302 0 0 1 2.54-6.074l.643-1.515c.212-.507.449-.98.673-1.47.224-.49.435-.98.686-1.458l.77-1.415c2.041-3.78 4.75-7.176 7.781-10.231a49.792 49.792 0 0 1 4.9-4.23l.641-.492.661-.471c.443-.311.877-.634 1.326-.935.906-.592 1.806-1.196 2.745-1.739 3.713-2.24 7.7-4.032 11.795-5.521a69.952 69.952 0 0 1 12.64-3.33h.021a.338.338 0 0 0 .148-.595.332.332 0 0 0-.239-.072l.001-.005Z" fill="#fff"/><path d="M156.537 101.166a2.467 2.467 0 0 0 2.461-2.387c.015-.493.333-12.233-3.178-24.754-4.794-17.094-14.462-27.234-27.959-29.323-6.785-1.051-12.827.56-17.955 4.786C93.908 62.673 92.4 97.146 92.338 98.608a2.463 2.463 0 0 0 4.924.19c.013-.336 1.484-33.74 15.782-45.512 4.052-3.338 8.651-4.553 14.063-3.714 28.027 4.34 26.98 48.608 26.966 49.054a2.465 2.465 0 0 0 2.38 2.54h.084Z" fill="#7B818D"/><path d="M219.81 245.744 190.489 87.99l-87.88-1.45-28.326 168.862h131.99c4.694-.002 14.227-5.014 13.537-9.658Z" fill="#C2C8D3"/><path d="m85.54 87.99 17.069-1.45-28.326 168.862h-16.94a5.412 5.412 0 0 1-4.202-2 5.412 5.412 0 0 1-1.1-4.521l33.5-160.89Z" fill="#D2D5DF"/><path d="M113.68 100.803a2.461 2.461 0 0 0 2.465-2.363c.014-.336 1.484-33.74 15.782-45.513 4.052-3.337 8.651-4.552 14.063-3.715 27.985 4.331 26.979 48.61 26.965 49.057a2.468 2.468 0 0 0 2.389 2.504 2.465 2.465 0 0 0 2.537-2.352c.015-.495.334-12.234-3.178-24.755-4.794-17.094-14.462-27.235-27.96-29.323-6.785-1.05-12.825.56-17.953 4.786-15.999 13.184-17.511 47.658-17.567 49.12a2.455 2.455 0 0 0 1.43 2.332c.293.135.611.211.934.224l.093-.002ZM292.548 261.229a3.544 3.544 0 0 1-3.534 3.531H97.934a3.542 3.542 0 0 1-3.534-3.529l-1.589-109.809c0-1.942 2.287-5.732 6.48-5.448l186.744-4.834a8.907 8.907 0 0 1 9.137 9.1l-2.624 110.989Z" fill="#7B818D"/><path d="M289.059 257.843a3.361 3.361 0 0 1-3.343 3.341H102.543a3.354 3.354 0 0 1-3.344-3.341l-1.5-99.68c.176-5.999 5.436-8.155 8.624-8.028l178.977-4.802a6.261 6.261 0 0 1 5.973 3.926c.316.788.468 1.631.447 2.479l-2.661 106.105Z" fill="#fff"/><path d="M101.179 210.485a.488.488 0 0 0 .346-.148.493.493 0 0 0 .14-.349l-.119-8.085a.492.492 0 0 0-.49-.483.494.494 0 0 0-.483.498l.119 8.084a.491.491 0 0 0 .487.483ZM100.888 190.673a.483.483 0 0 0 .345-.148.497.497 0 0 0 .138-.349l-.455-30.962c.009-1.84.56-3.308 1.659-4.355 2.04-1.96 5.278-1.854 5.415-1.848l57.206-1.54a.492.492 0 0 0 .476-.503.477.477 0 0 0-.311-.451.466.466 0 0 0-.192-.026l-57.172 1.54c-.355-.021-3.803-.082-6.099 2.119-1.291 1.238-1.952 2.94-1.96 5.067l.455 30.973a.488.488 0 0 0 .495.483Z" fill="#F1F1F1"/><path d="M300.911 273.492H89.153a1.736 1.736 0 0 1-1.736-1.736v-5.793c0-.959.777-1.736 1.736-1.736h211.758c.959 0 1.736.777 1.736 1.736v5.793c0 .959-.777 1.736-1.736 1.736Z" fill="#A8B2BC"/><path opacity=".45" d="M235.343 184.7h43.632a5.989 5.989 0 0 1 5.989 5.989v44.341a5.99 5.99 0 0 1-5.989 5.989h-43.632a5.99 5.99 0 0 1-5.989-5.989v-44.341a5.989 5.989 0 0 1 5.989-5.989ZM173.099 184.429h43.632a5.99 5.99 0 0 1 5.989 5.989v44.341a5.99 5.99 0 0 1-5.989 5.99h-43.632a5.99 5.99 0 0 1-5.99-5.99v-44.341a5.99 5.99 0 0 1 5.99-5.989ZM110.854 184.7h43.633a5.989 5.989 0 0 1 5.989 5.989v44.341a5.99 5.99 0 0 1-5.989 5.989h-43.633a5.99 5.99 0 0 1-5.989-5.989v-44.341a5.99 5.99 0 0 1 5.989-5.989Z" fill="#D2D5DF"/><path d="M240.334 189.555a2.352 2.352 0 0 1 2.282-1.768h28.208a2.358 2.358 0 0 1 2.282 1.768c1.567 6.066 7.124 26.528 8.188 43.842a1.864 1.864 0 0 1-1.099 1.809c-2.988 1.33-11.093 4.448-17.139 2.174a1.835 1.835 0 0 1-1.144-1.338c-.769-3.545-3.57-16.214-5.193-20.176-1.622 3.962-4.422 16.631-5.191 20.176a1.844 1.844 0 0 1-1.145 1.338c-6.045 2.274-14.15-.84-17.137-2.174a1.856 1.856 0 0 1-1.099-1.809c1.064-17.314 6.619-37.776 8.187-43.842Z" fill="#19D791"/><path d="M273.4 199.932a.559.559 0 0 0 .404-.887.555.555 0 0 0-.32-.215c-4.19-.639-6.951-2.396-8.208-5.221a8.002 8.002 0 0 1-.651-4.025.56.56 0 0 0-1.096-.168 9.075 9.075 0 0 0 .735 4.644c.98 2.195 3.337 4.995 9.052 5.866a.593.593 0 0 0 .084.006ZM240.744 199.024h.029c3.36-.175 6.216-1.878 8.28-4.929a15.603 15.603 0 0 0 2.1-4.564.558.558 0 0 0-.172-.649.556.556 0 0 0-.832.159.567.567 0 0 0-.073.227 14.814 14.814 0 0 1-1.961 4.232c-1.884 2.773-4.374 4.259-7.399 4.416a.559.559 0 0 0 .028 1.107v.001ZM255.258 202.048h.061l1.203-.14a3.275 3.275 0 0 0 2.919-3.26v-9.151a.564.564 0 0 0-.921-.344.563.563 0 0 0-.188.344v9.151a2.166 2.166 0 0 1-1.932 2.159l-1.202.14a.559.559 0 0 0 .06 1.104v-.003ZM233.815 233.476a.203.203 0 0 0 .2-.191l.017-.301a.202.202 0 1 0-.403-.022l-.016.301a.208.208 0 0 0 .051.146.204.204 0 0 0 .14.067h.011Zm.056-1.006c.051 0 .101-.02.138-.055a.205.205 0 0 0 .062-.135l.018-.301a.185.185 0 0 0-.007-.081.185.185 0 0 0-.038-.072.212.212 0 0 0-.064-.051.21.21 0 0 0-.078-.021.186.186 0 0 0-.081.012.204.204 0 0 0-.133.188l-.019.302a.205.205 0 0 0 .05.146c.018.02.039.036.063.047.024.012.05.019.076.02l.013.001Zm.062-1.006a.202.202 0 0 0 .201-.189l.02-.301a.208.208 0 0 0-.05-.147.2.2 0 0 0-.139-.068.197.197 0 0 0-.146.05.2.2 0 0 0-.068.138l-.02.303a.207.207 0 0 0 .01.078.203.203 0 0 0 .179.136h.013Zm.068-1.005c.051-.001.1-.02.137-.055a.2.2 0 0 0 .063-.133l.021-.301a.202.202 0 0 0-.33-.162.198.198 0 0 0-.071.133l-.021.301a.188.188 0 0 0 .009.078.186.186 0 0 0 .039.068.198.198 0 0 0 .138.069l.015.002Zm.073-1.006a.203.203 0 0 0 .202-.186l.022-.302a.203.203 0 0 0-.186-.21.203.203 0 0 0-.216.179l-.024.302a.203.203 0 0 0 .187.216l.015.001Zm.08-1.005a.202.202 0 0 0 .2-.185l.025-.301a.201.201 0 0 0-.331-.17.203.203 0 0 0-.071.137l-.025.301a.203.203 0 0 0 .185.217l.017.001Zm.085-1.005a.2.2 0 0 0 .2-.183l.027-.301a.201.201 0 1 0-.402-.035l-.026.301a.203.203 0 0 0 .183.218h.018Zm.091-1.004a.198.198 0 0 0 .2-.182l.028-.301a.204.204 0 0 0-.18-.234.222.222 0 0 0-.081.009.21.21 0 0 0-.071.041.204.204 0 0 0-.068.146l-.029.301a.202.202 0 0 0 .182.22h.019Zm.097-1.002a.2.2 0 0 0 .135-.053.199.199 0 0 0 .065-.129l.031-.301a.211.211 0 0 0-.008-.079.185.185 0 0 0-.037-.069.18.18 0 0 0-.06-.05.205.205 0 0 0-.224.021.198.198 0 0 0-.073.136l-.029.301a.192.192 0 0 0 .044.148.184.184 0 0 0 .061.05.182.182 0 0 0 .075.023l.02.002Zm.102-1.004a.199.199 0 0 0 .2-.179l.032-.301a.202.202 0 0 0-.179-.213.2.2 0 0 0-.144.041.196.196 0 0 0-.077.128l-.032.301a.204.204 0 0 0 .179.223h.021Zm.109-1.001a.2.2 0 0 0 .134-.052.198.198 0 0 0 .066-.127l.034-.301a.205.205 0 0 0-.043-.149.196.196 0 0 0-.136-.074.199.199 0 0 0-.148.043.2.2 0 0 0-.075.135l-.033.301a.202.202 0 0 0 .179.223l.022.001Zm.114-1.002a.205.205 0 0 0 .2-.178l.035-.3a.202.202 0 0 0-.325-.182.206.206 0 0 0-.076.135l-.035.301a.21.21 0 0 0 .042.148.205.205 0 0 0 .135.074l.024.002Zm.12-1.001a.2.2 0 0 0 .133-.051.197.197 0 0 0 .066-.126l.038-.299a.204.204 0 0 0-.175-.226.203.203 0 0 0-.226.175l-.038.301a.21.21 0 0 0 .042.149.209.209 0 0 0 .06.051.194.194 0 0 0 .075.024l.025.002Zm.125-1a.203.203 0 0 0 .2-.176l.038-.3a.202.202 0 0 0-.399-.052l-.04.301a.21.21 0 0 0 .041.149.2.2 0 0 0 .134.077l.026.001Zm.131-1a.202.202 0 0 0 .133-.049.205.205 0 0 0 .066-.126l.041-.299a.206.206 0 0 0-.095-.211.208.208 0 0 0-.077-.027.185.185 0 0 0-.081.006.197.197 0 0 0-.124.1.199.199 0 0 0-.022.079l-.041.299a.205.205 0 0 0 .099.202.196.196 0 0 0 .075.025l.026.001Zm.14-.998a.202.202 0 0 0 .133-.049.196.196 0 0 0 .067-.124l.042-.3a.18.18 0 0 0-.002-.08.198.198 0 0 0-.168-.155.196.196 0 0 0-.152.041.193.193 0 0 0-.077.138l-.042.3a.206.206 0 0 0 .097.201.197.197 0 0 0 .074.025l.028.003Zm.14-.998a.2.2 0 0 0 .132-.049.2.2 0 0 0 .068-.123l.044-.3a.202.202 0 0 0-.17-.229.203.203 0 0 0-.229.17l-.044.3a.204.204 0 0 0 .038.149.193.193 0 0 0 .132.079l.029.003Zm.149-.997a.2.2 0 0 0 .198-.172l.047-.298a.21.21 0 0 0-.037-.15.202.202 0 0 0-.362.088l-.047.3a.203.203 0 0 0 .17.229l.031.003Zm.154-.997a.198.198 0 0 0 .198-.169l.048-.298a.203.203 0 0 0-.318-.196.205.205 0 0 0-.081.131l-.046.3a.204.204 0 0 0 .093.203.207.207 0 0 0 .073.027c.01.002.021.003.031.002h.002Zm.159-.995a.201.201 0 0 0 .199-.169l.049-.297a.215.215 0 0 0 0-.08.207.207 0 0 0-.09-.13.2.2 0 0 0-.155-.025.203.203 0 0 0-.153.169l-.049.298a.21.21 0 0 0 .035.151.2.2 0 0 0 .163.083h.001Zm.165-.994a.199.199 0 0 0 .13-.048.2.2 0 0 0 .069-.12l.051-.298a.204.204 0 0 0-.166-.233.206.206 0 0 0-.15.035.2.2 0 0 0-.082.131l-.05.298a.196.196 0 0 0 .034.151.196.196 0 0 0 .131.081l.033.003Zm.171-.994a.203.203 0 0 0 .199-.167l.052-.296a.202.202 0 0 0-.398-.07l-.052.298a.204.204 0 0 0 .034.15c.015.022.034.04.057.054a.191.191 0 0 0 .107.031h.001Zm.177-.991a.198.198 0 0 0 .129-.048.199.199 0 0 0 .069-.119l.054-.297a.196.196 0 0 0 .001-.08.182.182 0 0 0-.03-.075.194.194 0 0 0-.057-.057.199.199 0 0 0-.284.064.203.203 0 0 0-.027.076l-.054.298a.203.203 0 0 0 .162.234l.037.004Zm.182-.993a.204.204 0 0 0 .129-.046.196.196 0 0 0 .069-.118l.056-.296a.2.2 0 0 0-.311-.205.204.204 0 0 0-.085.129l-.056.298a.201.201 0 0 0 .161.235c.012.003.023.004.035.003h.002Zm.189-.99a.201.201 0 0 0 .197-.163l.057-.297a.202.202 0 1 0-.396-.077l-.057.298a.2.2 0 0 0 .087.206.206.206 0 0 0 .11.033h.002Zm.193-.989a.203.203 0 0 0 .127-.045.204.204 0 0 0 .07-.116l.06-.297a.191.191 0 0 0 .001-.079.234.234 0 0 0-.03-.073.213.213 0 0 0-.056-.056.21.21 0 0 0-.225 0 .18.18 0 0 0-.055.055.197.197 0 0 0-.031.073l-.059.297a.21.21 0 0 0 .03.152.213.213 0 0 0 .056.056.213.213 0 0 0 .073.03.23.23 0 0 0 .037.003h.002Zm.2-.98a.198.198 0 0 0 .127-.046.198.198 0 0 0 .07-.115l.061-.297a.207.207 0 0 0-.032-.149.204.204 0 0 0-.126-.084.199.199 0 0 0-.15.028.199.199 0 0 0-.087.124l-.06.296a.199.199 0 0 0 .029.152.195.195 0 0 0 .127.086.177.177 0 0 0 .04-.008l.001.013Zm.206-.98a.207.207 0 0 0 .126-.046.201.201 0 0 0 .07-.114l.063-.295a.202.202 0 0 0-.394-.086l-.063.297a.21.21 0 0 0 .028.152.197.197 0 0 0 .128.087l.042.005Zm.211-.98a.203.203 0 0 0 .127-.045.202.202 0 0 0 .069-.115l.065-.294a.203.203 0 0 0-.078-.215.198.198 0 0 0-.155-.034.2.2 0 0 0-.161.162l-.064.296a.204.204 0 0 0 .027.152.195.195 0 0 0 .055.056.186.186 0 0 0 .072.031.154.154 0 0 0 .042-.007l.001.013Zm.217-.98a.201.201 0 0 0 .196-.159l.067-.294a.198.198 0 0 0-.026-.152.206.206 0 0 0-.126-.09.203.203 0 0 0-.241.153l-.067.295a.203.203 0 0 0 .152.241.338.338 0 0 0 .044-.018l.001.024Zm.224-.98a.203.203 0 0 0 .196-.156l.067-.294a.197.197 0 0 0-.074-.217.188.188 0 0 0-.073-.034.185.185 0 0 0-.081-.003.209.209 0 0 0-.076.03.206.206 0 0 0-.088.132l-.068.295a.21.21 0 0 0-.003.079.195.195 0 0 0 .082.131.18.18 0 0 0 .072.032.238.238 0 0 0 .041-.023l.005.028Zm.228-.98a.199.199 0 0 0 .196-.156l.07-.292a.196.196 0 0 0 .005-.08.182.182 0 0 0-.026-.075.194.194 0 0 0-.127-.093.2.2 0 0 0-.244.154l-.07.294a.202.202 0 0 0 .15.242.195.195 0 0 0 .045-.024l.001.03Zm.237-.98a.2.2 0 0 0 .124-.044.2.2 0 0 0 .071-.11l.072-.293a.2.2 0 0 0-.147-.244.2.2 0 0 0-.153.023.205.205 0 0 0-.092.124l-.071.295a.204.204 0 0 0 .077.21.192.192 0 0 0 .071.033.208.208 0 0 0 .047-.024l.001.03Zm.241-.98a.199.199 0 0 0 .124-.043.196.196 0 0 0 .072-.11l.074-.292a.202.202 0 0 0-.392-.1l-.073.294a.2.2 0 0 0 .106.231.21.21 0 0 0 .089.02Zm.249-.98a.206.206 0 0 0 .195-.151l.075-.293a.204.204 0 0 0-.012-.157.204.204 0 0 0-.378.028l-.076.293a.2.2 0 0 0 .14.245c.017.006.036.01.055.01l.001.025Zm.255-.98a.2.2 0 0 0 .194-.15l.077-.293a.2.2 0 0 0-.025-.147.198.198 0 0 0-.12-.09.204.204 0 0 0-.149.018.203.203 0 0 0-.095.116l-.078.292a.201.201 0 0 0 .14.247.166.166 0 0 0 .054-.014l.002.021Zm.26-.98a.201.201 0 0 0 .195-.15l.08-.291a.2.2 0 0 0-.02-.153.198.198 0 0 0-.122-.095.203.203 0 0 0-.248.141l-.079.293a.202.202 0 0 0 .019.152.2.2 0 0 0 .121.096.246.246 0 0 0 .053-.006l.001.013Zm.269-.98a.198.198 0 0 0 .193-.14l.083-.291a.202.202 0 0 0-.07-.214.212.212 0 0 0-.07-.036.202.202 0 0 0-.249.14l-.082.293a.205.205 0 0 0 .019.153c.026.046.07.08.121.095a.194.194 0 0 0 .054-.013l.001.013Zm.28-.969a.205.205 0 0 0 .195-.14l.082-.29a.205.205 0 0 0-.141-.237.203.203 0 0 0-.245.125l-.084.291a.191.191 0 0 0-.004.092.19.19 0 0 0 .037.085.203.203 0 0 0 .16.081v-.007Zm.28-.969a.2.2 0 0 0 .193-.14l.087-.29a.204.204 0 0 0-.018-.151.201.201 0 0 0-.368.037l-.087.289a.2.2 0 0 0 .14.251c.016.001.033 0 .049-.003l.004.007Zm.291-.966a.201.201 0 0 0 .192-.14l.09-.288a.206.206 0 0 0-.015-.154.201.201 0 0 0-.372.035l-.088.29a.2.2 0 0 0 .069.216.227.227 0 0 0 .071.036c.016.001.033 0 .049-.002l.004.007Zm.298-.963a.195.195 0 0 0 .119-.039.195.195 0 0 0 .073-.101l.093-.288a.211.211 0 0 0-.014-.154.198.198 0 0 0-.118-.1.206.206 0 0 0-.154.013.197.197 0 0 0-.061.05.18.18 0 0 0-.038.069l-.091.288a.206.206 0 0 0 .013.154.198.198 0 0 0 .118.1.262.262 0 0 0 .056.001l.004.007Zm.308-.96a.202.202 0 0 0 .192-.14l.094-.28a.204.204 0 0 0-.124-.267.203.203 0 0 0-.258.141l-.095.287a.201.201 0 0 0 .13.254.218.218 0 0 0 .057-.002l.004.007Zm.32-.958a.203.203 0 0 0 .118-.039.204.204 0 0 0 .072-.101l.098-.28a.2.2 0 0 0-.003-.16.197.197 0 0 0-.048-.066.193.193 0 0 0-.151-.052.2.2 0 0 0-.179.148l-.098.28a.205.205 0 0 0-.011.078.206.206 0 0 0 .069.138.177.177 0 0 0 .128.047l.005.007Zm.333-.953a.201.201 0 0 0 .189-.14c.067-.187.103-.28.103-.28a.192.192 0 0 0 .019-.081.2.2 0 0 0-.061-.15.208.208 0 0 0-.152-.057.203.203 0 0 0-.182.148s-.038.098-.107.288a.204.204 0 0 0 .122.259.235.235 0 0 0 .065.006l.004.007ZM280.203 233.193h.012a.225.225 0 0 0 .077-.02.207.207 0 0 0 .102-.116.189.189 0 0 0 .01-.078l-.009-.161a.2.2 0 0 0-.214-.178.2.2 0 0 0-.135.065.2.2 0 0 0-.053.139l.01.16a.2.2 0 0 0 .2.189Zm-.058-.865h.014a.204.204 0 0 0 .187-.216l-.021-.302a.204.204 0 0 0-.217-.187.204.204 0 0 0-.187.217l.023.301a.202.202 0 0 0 .196.187h.005Zm-.077-1.006h.017a.204.204 0 0 0 .185-.217l-.025-.302a.203.203 0 0 0-.218-.184.199.199 0 0 0-.137.071.2.2 0 0 0-.047.147l.025.301a.2.2 0 0 0 .2.184Zm-.085-1.003H280a.201.201 0 0 0 .175-.141c.008-.025.01-.051.008-.078l-.028-.302a.207.207 0 0 0-.071-.137.2.2 0 0 0-.147-.045.203.203 0 0 0-.184.22l.028.299a.203.203 0 0 0 .202.185v-.001Zm-.094-1.004h.02a.203.203 0 0 0 .182-.22l-.03-.302a.203.203 0 0 0-.221-.181.2.2 0 0 0-.18.221l.029.3c.005.05.028.096.065.129a.2.2 0 0 0 .135.053Zm-.101-1.004h.021a.203.203 0 0 0 .136-.073.205.205 0 0 0 .044-.148l-.031-.301a.212.212 0 0 0-.074-.136.195.195 0 0 0-.07-.036.192.192 0 0 0-.079-.007.198.198 0 0 0-.172.144.187.187 0 0 0-.007.078l.032.3a.202.202 0 0 0 .2.179Zm-.107-1.002h.022a.203.203 0 0 0 .178-.223l-.034-.301a.191.191 0 0 0-.023-.077.195.195 0 0 0-.05-.061.196.196 0 0 0-.151-.044.205.205 0 0 0-.076.024.203.203 0 0 0-.06.053.191.191 0 0 0-.04.151l.033.3a.202.202 0 0 0 .201.178Zm-.117-1.001h.026a.204.204 0 0 0 .176-.224l-.036-.301a.202.202 0 0 0-.359-.101.202.202 0 0 0-.042.148l.037.3a.196.196 0 0 0 .065.127.204.204 0 0 0 .133.051Zm-.12-1.001h.024a.208.208 0 0 0 .134-.076.205.205 0 0 0 .042-.148l-.038-.301a.209.209 0 0 0-.076-.135.205.205 0 0 0-.149-.04.185.185 0 0 0-.075.025.193.193 0 0 0-.059.051.21.21 0 0 0-.041.149l.038.3a.2.2 0 0 0 .066.123c.036.032.082.05.13.052h.004Zm-.129-1.001h.027a.2.2 0 0 0 .173-.226l-.039-.301a.205.205 0 0 0-.077-.134.203.203 0 0 0-.15-.039.197.197 0 0 0-.133.077.189.189 0 0 0-.035.071.186.186 0 0 0-.005.078l.04.3a.201.201 0 0 0 .199.168v.006Zm-.133-1h.027a.197.197 0 0 0 .133-.077.224.224 0 0 0 .035-.071.21.21 0 0 0 .004-.079l-.041-.299a.194.194 0 0 0-.075-.14.197.197 0 0 0-.072-.037.22.22 0 0 0-.081-.006.203.203 0 0 0-.171.237l.041.3a.202.202 0 0 0 .2.172Zm-.14-1.001h.028a.203.203 0 0 0 .172-.228l-.043-.301a.204.204 0 0 0-.303-.145.199.199 0 0 0-.096.202l.042.3a.202.202 0 0 0 .2.172Zm-.14-1.001h.03a.202.202 0 0 0 .17-.23l-.044-.299a.204.204 0 0 0-.08-.133.203.203 0 0 0-.282.042.2.2 0 0 0-.037.15l.044.299c.007.047.03.09.066.121.035.031.08.049.128.05h.005Zm-.15-.998a.16.16 0 0 0 .031 0 .202.202 0 0 0 .132-.08.205.205 0 0 0 .036-.15l-.046-.299a.203.203 0 0 0-.228-.156.207.207 0 0 0-.128.075.206.206 0 0 0-.042.142l.047.3a.2.2 0 0 0 .186.168h.012Zm-.155-.997h.032a.203.203 0 0 0 .168-.231l-.047-.3a.203.203 0 0 0-.364-.086.203.203 0 0 0-.035.151l.047.298a.202.202 0 0 0 .193.168h.006Zm-.16-.994h.033a.2.2 0 0 0 .166-.231l-.047-.298a.205.205 0 0 0-.082-.132.2.2 0 0 0-.15-.035.2.2 0 0 0-.167.231l.049.298a.201.201 0 0 0 .193.167h.005Zm-.163-.993h.033a.2.2 0 0 0 .074-.027.21.21 0 0 0 .09-.126.21.21 0 0 0 .001-.079l-.049-.297a.191.191 0 0 0-.028-.073.199.199 0 0 0-.278-.064.195.195 0 0 0-.057.054.174.174 0 0 0-.032.072.187.187 0 0 0-.002.078l.049.297a.199.199 0 0 0 .193.165h.006Zm-.168-.989h.035a.21.21 0 0 0 .13-.083.22.22 0 0 0 .032-.072.21.21 0 0 0 .001-.079l-.05-.298a.202.202 0 0 0-.398.068l.051.298a.199.199 0 0 0 .067.117c.035.03.08.047.126.049h.006Zm-.173-.994h.035c.053-.01.1-.04.13-.084a.199.199 0 0 0 .034-.15l-.053-.298a.185.185 0 0 0-.026-.077.203.203 0 0 0-.21-.097.197.197 0 0 0-.133.088.201.201 0 0 0-.027.157l.052.297a.202.202 0 0 0 .193.165l.005-.001Zm-.177-.993h.036a.201.201 0 0 0 .162-.234l-.053-.298a.203.203 0 0 0-.365-.079.2.2 0 0 0-.032.15l.054.299a.208.208 0 0 0 .067.115.203.203 0 0 0 .125.047h.006Zm-.181-.991a.216.216 0 0 0 .036 0 .216.216 0 0 0 .074-.029.21.21 0 0 0 .088-.127.21.21 0 0 0 .001-.079l-.056-.297a.203.203 0 0 0-.233-.154.205.205 0 0 0-.127.081.195.195 0 0 0-.036.146l.056.298a.195.195 0 0 0 .067.114.203.203 0 0 0 .124.047h.006Zm-.185-.991h.038a.208.208 0 0 0 .129-.085.206.206 0 0 0 .032-.151l-.056-.298a.2.2 0 0 0-.365-.075.2.2 0 0 0-.031.151l.056.297a.205.205 0 0 0 .068.114.204.204 0 0 0 .124.047h.005Zm-.189-.992h.039a.195.195 0 0 0 .129-.084.21.21 0 0 0 .031-.072.21.21 0 0 0 0-.079l-.057-.297a.202.202 0 0 0-.397.076l.058.297a.196.196 0 0 0 .07.114c.035.029.08.045.126.045h.001Zm-.192-.989a.267.267 0 0 0 .04 0 .208.208 0 0 0 .128-.086.192.192 0 0 0 .031-.151l-.059-.297a.2.2 0 0 0-.085-.128.204.204 0 0 0-.152-.031.21.21 0 0 0-.129.086.208.208 0 0 0-.03.152l.059.296c.01.044.034.084.069.113a.21.21 0 0 0 .123.046h.005Zm-.196-.99h.041a.205.205 0 0 0 .128-.087c.03-.044.04-.099.03-.151l-.06-.297a.205.205 0 0 0-.028-.076.207.207 0 0 0-.211-.091.208.208 0 0 0-.131.09.205.205 0 0 0-.025.157l.059.297a.203.203 0 0 0 .192.158h.005Zm-.198-.989h.04a.195.195 0 0 0 .128-.085.195.195 0 0 0 .029-.151l-.06-.297a.206.206 0 0 0-.088-.122.2.2 0 0 0-.273.056.2.2 0 0 0-.034.146l.06.297a.2.2 0 0 0 .192.156h.006Zm-.203-.98h.042a.198.198 0 0 0 .126-.087.2.2 0 0 0 .029-.151l-.062-.296a.195.195 0 0 0-.159-.157.187.187 0 0 0-.078.001.195.195 0 0 0-.127.086.197.197 0 0 0-.029.151l.06.297a.2.2 0 0 0 .192.149l.006.007Zm-.206-.987h.042a.192.192 0 0 0 .072-.031.195.195 0 0 0 .084-.129.191.191 0 0 0-.001-.079l-.061-.297a.204.204 0 0 0-.367-.068.184.184 0 0 0-.029.073.191.191 0 0 0 .001.079l.061.296a.209.209 0 0 0 .071.106.199.199 0 0 0 .121.043l.006.007Zm-.209-.98h.042a.204.204 0 0 0 .127-.087c.029-.045.039-.1.029-.152l-.065-.297a.206.206 0 0 0-.09-.119.204.204 0 0 0-.271.059.204.204 0 0 0-.032.146l.063.295a.198.198 0 0 0 .073.102.195.195 0 0 0 .119.039l.005.014Zm-.213-.98a.162.162 0 0 0 .044 0 .199.199 0 0 0 .156-.161.21.21 0 0 0-.002-.079l-.065-.296a.202.202 0 0 0-.237-.143.203.203 0 0 0-.156.229l.064.295a.203.203 0 0 0 .191.136l.005.019Zm-.215-.98a.155.155 0 0 0 .043 0 .197.197 0 0 0 .156-.161.19.19 0 0 0-.002-.079l-.066-.296a.198.198 0 0 0-.09-.12.197.197 0 0 0-.148-.025.201.201 0 0 0-.155.232l.066.295a.201.201 0 0 0 .19.129l.006.025Zm-.219-.98a.17.17 0 0 0 .045 0 .2.2 0 0 0 .153-.239l-.066-.295a.199.199 0 0 0-.162-.157.21.21 0 0 0-.079.001.2.2 0 0 0-.127.09.2.2 0 0 0-.025.154l.065.294a.207.207 0 0 0 .077.091.199.199 0 0 0 .114.032l.005.029Zm-.221-.98h.045a.212.212 0 0 0 .072-.032.21.21 0 0 0 .054-.057.222.222 0 0 0 .028-.074.21.21 0 0 0-.003-.079l-.066-.295a.194.194 0 0 0-.032-.072.184.184 0 0 0-.057-.054.191.191 0 0 0-.073-.028.19.19 0 0 0-.079.002.195.195 0 0 0-.154.163.186.186 0 0 0 .002.078l.067.296a.207.207 0 0 0 .077.089.207.207 0 0 0 .114.03l.005.033Zm-.224-.98a.17.17 0 0 0 .045 0 .2.2 0 0 0 .151-.24l-.068-.296a.209.209 0 0 0-.087-.134.206.206 0 0 0-.232.005.214.214 0 0 0-.055.061.21.21 0 0 0-.018.159l.067.294a.2.2 0 0 0 .192.115l.005.036Zm-.228-.98a.177.177 0 0 0 .046 0 .202.202 0 0 0 .15-.242l-.069-.294a.19.19 0 0 0-.087-.134.199.199 0 0 0-.231.005.214.214 0 0 0-.055.061.212.212 0 0 0-.026.078.221.221 0 0 0 .007.081l.069.296a.198.198 0 0 0 .079.083c.034.02.072.029.111.027l.006.039Zm-.231-.98a.193.193 0 0 0 .048 0 .2.2 0 0 0 .125-.091.198.198 0 0 0 .024-.152l-.07-.294a.201.201 0 0 0-.031-.074.2.2 0 0 0-.213-.08.203.203 0 0 0-.148.248l.069.294a.201.201 0 0 0 .079.082c.034.02.073.029.111.027l.006.04Zm-.232-.98c.015.002.03.002.046 0a.2.2 0 0 0 .124-.091.207.207 0 0 0 .026-.152l-.072-.294a.2.2 0 0 0-.242-.144.2.2 0 0 0-.15.238l.072.294a.196.196 0 0 0 .19.107l.006.042Zm-.237-.98a.193.193 0 0 0 .048 0 .204.204 0 0 0 .148-.243l-.073-.294a.204.204 0 0 0-.164-.166.189.189 0 0 0-.082.003.191.191 0 0 0-.075.035.202.202 0 0 0-.069.223l.071.294a.193.193 0 0 0 .08.08.194.194 0 0 0 .11.025l.006.043Zm-.241-.98a.2.2 0 0 0 .049 0 .2.2 0 0 0 .14-.243l-.071-.294a.204.204 0 0 0-.092-.125.21.21 0 0 0-.153-.023.194.194 0 0 0-.071.034.197.197 0 0 0-.08.132.186.186 0 0 0 .004.078l.073.294a.202.202 0 0 0 .082.082.203.203 0 0 0 .114.022l.005.043Zm-.242-.98a.2.2 0 0 0 .049 0 .198.198 0 0 0 .119-.093.197.197 0 0 0 .021-.15l-.074-.294a.2.2 0 0 0-.244-.14.203.203 0 0 0-.14.245l.074.294a.203.203 0 0 0 .189.096l.006.042Zm-.246-.98a.209.209 0 0 0 .05 0 .197.197 0 0 0 .12-.093.197.197 0 0 0 .02-.152l-.074-.292a.2.2 0 0 0-.167-.155.198.198 0 0 0-.152.039.205.205 0 0 0-.078.135.215.215 0 0 0 .006.08l.074.293a.203.203 0 0 0 .195.105l.006.04Zm-.248-.98a.197.197 0 0 0 .169-.1.197.197 0 0 0 .02-.152l-.076-.292a.2.2 0 0 0-.243-.141.208.208 0 0 0-.123.09.202.202 0 0 0-.024.15l.075.294a.202.202 0 0 0 .202.112v.039Zm-.254-.98a.198.198 0 0 0 .171-.101.197.197 0 0 0 .02-.152l-.076-.293a.202.202 0 0 0-.246-.144.2.2 0 0 0-.123.094.2.2 0 0 0-.021.153l.077.292a.196.196 0 0 0 .079.087c.034.021.074.03.114.028l.005.036Zm-.257-.98a.201.201 0 0 0 .192-.253l-.079-.294a.191.191 0 0 0-.034-.072.186.186 0 0 0-.059-.053.186.186 0 0 0-.076-.026.205.205 0 0 0-.15.04.203.203 0 0 0-.07.216l.077.291a.198.198 0 0 0 .079.088.2.2 0 0 0 .114.03l.006.033Zm-.262-.98a.157.157 0 0 0 .053 0 .202.202 0 0 0 .14-.247l-.081-.296a.21.21 0 0 0-.035-.07.2.2 0 0 0-.135-.076.21.21 0 0 0-.149.041.196.196 0 0 0-.051.06.197.197 0 0 0-.019.153l.081.294a.198.198 0 0 0 .19.109l.006.032ZM182.763 191.723a20.667 20.667 0 0 0 24.525.595l.85-.595c.42.507 8.555 8.97 13.151 19.409a1.91 1.91 0 0 1-.131 1.778c-.802 1.295-2.48 3.652-4.554 4.608a1.911 1.911 0 0 1-2.225-.471c-1.54-1.725-4.92-5.6-6.502-7.98 0 0 2.761 15.236 3.5 21.471a3.502 3.502 0 0 1-2.94 3.871c-9.067 1.438-17.813 1.647-26.104.101a3.5 3.5 0 0 1-2.839-3.854c.722-6.213 3.518-21.589 3.518-21.589-1.582 2.38-4.966 6.248-6.5 7.98a1.915 1.915 0 0 1-2.225.471c-2.076-.956-3.753-3.313-4.555-4.608a1.91 1.91 0 0 1-.131-1.778c4.608-10.439 12.74-18.902 13.162-19.409Z" fill="#fff"/><path d="M178.728 196.45c2.192-2.762 3.851-4.505 4.035-4.727a20.667 20.667 0 0 0 24.525.595l.85-.595c.168.202 1.552 1.659 3.449 3.997-3.893 2.858-15.101 8.883-32.859.73ZM179.817 228.275c.354-2.508.861-5.652 1.368-8.668 11.775 1.864 21.299 1.518 28.589.37a348.933 348.933 0 0 1 1.347 8.576c-7.701 1.396-18.12 1.936-31.304-.278ZM182.42 212.414c.357-2.022.596-3.34.596-3.34-.568.852-1.369 1.898-2.24 2.969-3.452-.82-6.86-1.813-10.213-2.975a64.781 64.781 0 0 1 4.047-6.978c22.283 8.785 36.541 3.681 42.117.712a61.499 61.499 0 0 1 4.147 7.443c-2.123.959-5.389 2.165-9.775 3.019-1.225-1.47-2.452-3.014-3.236-4.19 0 0 .342 1.887.818 4.604-6.615.987-15.392 1.102-26.261-1.264ZM144.802 205.666l12.512 21.227a4.505 4.505 0 0 1-.473 5.254c-2.196 2.52-6.142 5.862-11.48 5.665-8.508-.315-10.715-4.965-20.249-1.34-9.534 3.624-14.28-5.018-17.64-5.122-.374-.011-.7-.019-.995-.023a1.064 1.064 0 0 1-1.04-1.126 1.06 1.06 0 0 1 .182-.533l15.783-23.288 23.4-.714ZM144.802 205.12l.369-.907 5.304-13.038s-5.278-1.812-7.721-1.812c0 0-10.006 3.308-18.515 0 0 0-5.6.708-7.721 2.127l5.121 13.945 23.163-.315Z" fill="#19D791"/><path d="m145.608 207.034-.254-3.023s-13.531 2.048-24.177.158l-.246 3.08s9.648 4.147 24.677-.215Z" fill="#00C079"/><path d="M49.03 145.605a2.254 2.254 0 0 1 .042-1.766c3.78-8.319 17.32-38.101 17.817-38.455.58-.42 18.774-16.222 18.774-16.222 3.351-2.91 4.415-.092 4.415-.092l6.941 28.88-17.938 38.272a2.249 2.249 0 0 1-2.88 1.13l-25.926-10.5a2.263 2.263 0 0 1-1.245-1.247Zm38.834-46.009a3.199 3.199 0 1 0-3.714-5.21 3.199 3.199 0 0 0 3.713 5.21Z" fill="#5FE0BB"/><path d="M78.314 125.277c-2.457 4.264-1.86 7.469.18 8.645 2.088 1.201 5.04 0 7.303-3.88 2.207-3.829 2.03-7.288-.263-8.608-2.362-1.361-5.123.2-7.22 3.843Zm-4.76 17.117 3.402-25.9-1.604-.924-3.404 25.9 1.606.924ZM83.72 128.68c-1.321 2.349-2.927 3.704-4.05 3.058-1.123-.647-.742-2.583.675-5.04 1.29-2.24 2.789-3.78 4.004-3.08 1.141.651.675 2.786-.629 5.062Zm-20.514-.909c-2.437 4.234-1.881 7.457.184 8.645 2.065 1.189 5.04 0 7.297-3.92 2.186-3.798 2.028-7.288-.241-8.596-2.368-1.367-5.147.224-7.245 3.867l.005.004Zm5.394 3.395c-1.303 2.317-2.927 3.705-4.05 3.058-1.146-.661-.742-2.583.675-5.04 1.309-2.272 2.789-3.78 4.004-3.08 1.148.654.682 2.79-.629 5.062Z" fill="#fff"/><path d="M87.199 97.585a1.333 1.333 0 0 0 1.13-.952c.094-.321 2.429-7.903 11.56-10.486a1.334 1.334 0 0 0-.726-2.565c-10.598 2.997-13.286 11.93-13.395 12.309a1.335 1.335 0 0 0 1.431 1.694Z" fill="#F1F1F1"/><path d="m126.548 151.314 14.678 3.886 2.229.588s.28-.389.817-1.12c.256-.369.609-.806 1.017-1.323a63.07 63.07 0 0 1 1.454-1.755 56.723 56.723 0 0 1 4.363-4.504 60.66 60.66 0 0 1 6.533-5.246 69.092 69.092 0 0 1 8.861-5.202c1.68-.797 3.426-1.606 5.282-2.313l.7-.28c.235-.087.475-.171.71-.258l1.428-.519c.98-.311 1.947-.661 2.957-.945a78.009 78.009 0 0 1 12.806-2.68c2.24-.28 4.524-.444 6.826-.546l1.732-.036c.28 0 .585-.018.862-.018l.84.007h.84c.28 0 .548 0 .872.016l1.865.075.235.008.125-.056.039-.059h.028l.398.084.869.09c.58.039 1.162.085 1.738.15l1.736.173c.578.074 1.152.151 1.727.223 2.299.311 4.58.7 6.811 1.201l.84.183.829.206c.55.14 1.105.27 1.651.42 1.087.308 2.177.598 3.236.947 1.07.317 2.1.7 3.149 1.054.515.189 1.022.386 1.53.579l.763.29.744.311c2.003.804 3.897 1.714 5.733 2.642.905.48 1.807.946 2.66 1.45.852.504 1.705 1.007 2.535 1.509a68.616 68.616 0 0 1 8.651 6.419 61.595 61.595 0 0 1 6.276 6.331 60.515 60.515 0 0 1 4.084 5.375c.509.774.98 1.467 1.33 2.076.35.609.687 1.12.921 1.569.126.23.237.431.333.602.2.364.678.56 1.141.483.064-.009.127-.023.189-.043l.078-.027c.516-.169.779-.642.597-1.075-.073-.179-.161-.386-.261-.624-.179-.452-.453-1.021-.767-1.68a89.18 89.18 0 0 0-1.131-2.267 59.844 59.844 0 0 0-3.597-5.905 61.855 61.855 0 0 0-5.833-7.164 69.343 69.343 0 0 0-8.44-7.56c-.827-.613-1.656-1.243-2.542-1.838-.865-.616-1.782-1.2-2.708-1.793-1.869-1.162-3.823-2.315-5.912-3.367-.259-.133-.516-.269-.778-.402l-.797-.385c-.533-.255-1.067-.518-1.608-.769-1.098-.481-2.196-.987-3.339-1.432-1.12-.475-2.294-.893-3.463-1.327-.588-.209-1.184-.403-1.782-.606l-.897-.299-.909-.28c-2.425-.76-4.931-1.39-7.476-1.941l-1.918-.395-1.935-.343c-.646-.121-1.299-.212-1.95-.305l-.98-.14-.487-.073-.552-.062-1.849-.218c-.293-.041-.644-.069-.98-.098l-1.023-.088-1.024-.086c-.343-.029-.665-.039-.999-.06l-1.988-.112c-2.66-.092-5.308-.101-7.945.015-5.164.226-10.3.882-15.354 1.96-1.234.245-2.432.56-3.64.84l-1.768.481-.877.242-.865.263c-2.311.672-4.508 1.47-6.639 2.271a87.967 87.967 0 0 0-11.45 5.46 79.57 79.57 0 0 0-8.776 5.81 74.682 74.682 0 0 0-6.067 5.169c-.791.758-1.498 1.436-2.075 2.052-.577.616-1.093 1.12-1.474 1.564-.774.859-3.793 4.55-3.793 4.55Z" fill="#19D791"/><path d="m120.297 150.708 7.616 27.722 28.111-26.721-35.727-1.001ZM245.753 265.345l-12.256-3.945-1.862-.596-.767.912c-.242.306-.57.661-.95 1.084-.381.423-.84.9-1.351 1.432a50.341 50.341 0 0 1-4.007 3.65 53.834 53.834 0 0 1-5.907 4.186 60.677 60.677 0 0 1-7.878 4.049c-1.485.606-3.021 1.219-4.648 1.741l-.607.202c-.206.063-.42.125-.62.189-.415.124-.832.251-1.251.381-.849.222-1.701.477-2.578.676a67.249 67.249 0 0 1-11.08 1.729c-1.926.14-3.882.182-5.849.171l-1.479-.044c-.245-.009-.499-.011-.735-.022l-.715-.042-.714-.039c-.238-.016-.466-.024-.742-.053l-1.585-.14-.199-.019-.112.051-.039.054h-.022l-.332-.096-.734-.116c-.491-.059-.98-.125-1.471-.206l-1.467-.223c-.487-.089-.972-.179-1.458-.266a64.874 64.874 0 0 1-5.726-1.317l-.7-.193-.693-.21c-.459-.14-.924-.28-1.379-.42-.907-.308-1.82-.602-2.697-.945-.891-.318-1.751-.685-2.616-1.035-.42-.183-.84-.374-1.26-.56l-.631-.28-.613-.297c-1.657-.771-3.212-1.628-4.717-2.497-.741-.448-1.48-.885-2.178-1.351-.699-.467-1.389-.931-2.064-1.4a56.309 56.309 0 0 1-6.961-5.843 49.233 49.233 0 0 1-8.083-10.417c-.385-.682-.737-1.292-1.001-1.82-.265-.528-.514-.98-.686-1.376l-.245-.527c-.149-.319-.542-.506-.941-.462-.055.006-.11.016-.164.03l-.069.019c-.449.122-.7.514-.576.891l.182.542c.124.394.322.89.547 1.47.225.579.503 1.241.819 1.979a49.936 49.936 0 0 0 2.691 5.193 51.046 51.046 0 0 0 4.515 6.354 57.108 57.108 0 0 0 6.707 6.806c.667.56 1.333 1.131 2.05 1.68.717.549 1.442 1.1 2.192 1.645 1.518 1.071 3.111 2.136 4.823 3.123.212.125.42.252.637.377.217.124.436.242.654.361.44.241.877.489 1.322.725.904.458 1.807.937 2.753 1.365.93.452 1.897.86 2.866 1.28.487.203.98.395 1.48.593l.745.293.756.28c2.017.752 4.112 1.4 6.245 1.977l1.609.42 1.627.375c.544.132 1.093.237 1.642.344l.826.166.41.082.466.077 1.561.266c.247.048.545.086.832.126l.867.119.865.118c.29.039.56.061.84.094l1.688.182a88.12 88.12 0 0 0 6.768.33 80.106 80.106 0 0 0 13.205-1.008c1.066-.155 2.108-.375 3.148-.56l1.54-.333.763-.168.752-.188c2.012-.473 3.934-1.057 5.8-1.648a77.046 77.046 0 0 0 10.101-4.151 70.077 70.077 0 0 0 7.84-4.569 66.706 66.706 0 0 0 5.508-4.164c.722-.613 1.369-1.159 1.898-1.659.529-.5 1.004-.913 1.355-1.268.714-.702 3.52-3.716 3.52-3.716Z" fill="#19D791"/><path d="m251.041 266.132-4.726-23.946-25.647 21.548 30.373 2.398Z" fill="url(#a)"/><path d="m251.041 266.132-4.726-23.946-25.647 21.548 30.373 2.398Z" fill="#19D791"/><path d="M56.6 215.873c-1.26 1.351-3.128 2.52-4.44 3.245 1.96 2.419 4.606 4.843 8.113 7.214l1.004 2.252 3.22-3.853s-5.775-2.872-7.898-8.858Z" fill="#FFD89D"/><path d="M73.805 288.96a.812.812 0 0 0-.02-.208c-1.042-4.129-6.211-6.701-6.211-6.701l-2.054.167c-1.177 3.64-1.026 5.87-.84 6.86 0 .028.014.054.021.082 1.698.149 5.176.248 9.104-.2Z" fill="#7B818D"/><path d="m64.703 279.161.866 4.177a.685.685 0 0 0 .584.56c.447.045.898.038 1.344-.021a.867.867 0 0 0 .68-1.01l-.603-3.707-2.871.001Z" fill="#FFD89D"/><path d="M91.948 288.778a.657.657 0 0 0-.05-.094c-1.096-1.531-3.89-4.583-9.41-5.908l-2.649-.082s-1.179 2.049-1.201 5.845c.605.248 1.775.514 4.037.578 3.496.101 7.645-.204 9.273-.339Z" fill="#7B818D"/><path d="M79.349 278.68c.03.197.392 3.197.532 4.361a.575.575 0 0 0 .487.521 6.136 6.136 0 0 0 1.82-.028.789.789 0 0 0 .594-.787v-4.71l-3.433.643Z" fill="#FFD89D"/><path d="M77.225 223.927s6.388 24.275 6.272 54.821a1.184 1.184 0 0 1-.939 1.154c-.803.168-1.983.37-2.96.342a1.1 1.1 0 0 1-1.046-.916c-.896-5.253-6.036-34.84-8.96-39.644 0 0-1.927 26.353-1.31 40.025a.645.645 0 0 1-.572.673 10.76 10.76 0 0 1-2.38 0 .868.868 0 0 1-.773-.735c-.638-4.445-4.309-30.905-4.153-49.964.008-1.075 2.842-5.749 2.842-5.749l13.979-.007Z" fill="#A8B2BC"/><path d="M86.1 194.55a26.55 26.55 0 0 1-2.703-4.128c-1.062-2.004-.086 1.298-.376-.966-7.946-5.74-19.909-2.832-24.537-2.248a6.179 6.179 0 0 0-3.905 2.1c-3.966 4.589-12.669 17.154-2.426 29.82 1.312-.728 3.174-1.894 4.44-3.245-1.135-3.194-1.227-7.28 1.147-12.282.081.397.183.79.304 1.177 3.273 10.368 3.448 18.998 3.44 20.987a.655.655 0 0 0 .42.614c4.308 1.726 12.6.7 15.383.28a.938.938 0 0 0 .783-1.063c-1.365-9.898 5.646-26.18 7.498-30.258.13-.292.31-.559.532-.788Z" fill="#2187FF"/><path d="m65.94 178.874-.83 8.481s4.772 1.438 8.243-1.011l-2.44-7.709-4.973.239Z" fill="#FFD89D"/><path d="M71.472 169.205c.115.108 4.847 9.401 4.847 9.401l-5.363 2.589-5.793-8.141s4.387-5.659 6.31-3.849Z" fill="#FFD89D"/><path d="M67.536 173.279a.867.867 0 0 0 .064.752l2.68 4.459a.789.789 0 0 0 .14.182c.317.297 1.4 1.16 2.25-.015.718-1 1.391-1.91 2.112-2.285a.87.87 0 0 1 .323-.091.85.85 0 0 1 .832.472c.441.874 1.294 2.66 1.83 4.34a.851.851 0 0 1-.496 1.044c-1.085.44-3.231 1.235-5.136 1.498a.851.851 0 0 1-.81-.344c-.819-1.12-3.129-4.259-3.92-5.04-.732-.73-2.084-.455-2.693-.28a.867.867 0 0 1-.683-.09c-.618-.372-1.696-1.299-.71-2.868a.859.859 0 0 0-.265-1.164c-.69-.453-1.438-1.305-.725-2.685.713-1.38 2.012-1.522 2.89-1.414a.886.886 0 0 0 .932-.518.57.57 0 0 1 .441-.349.812.812 0 0 0 .307-.119.826.826 0 0 0 .365-.861c-.154-.791-.038-1.82 1.224-2.51 2.314-1.272 4.34.801 4.856 2.551.517 1.75-2.072 2.986-3.699 3.193-1.185.156-1.845 1.461-2.11 2.142Z" fill="#5B6475"/><path d="M68.416 179.886s-1.028-3.01-2.346-2.899c-1.317.11-2.355 1.422-.722 2.898 2.031 1.834 3.069.001 3.069.001Z" fill="#FFD89D"/><path d="M57.313 202.815c-1.736-4.751-1.106-10.488-1.1-10.546l.479.055c-.007.056-.623 5.684 1.074 10.326l-.453.165Z" fill="#015FCD"/><path d="M69.353 239.066a.242.242 0 0 1-.234-.181c-.529-2.043-4.495-4.288-4.535-4.311a.239.239 0 0 1-.092-.328.24.24 0 0 1 .328-.092c.17.096 4.185 2.369 4.76 4.611a.235.235 0 0 1-.025.182.243.243 0 0 1-.202.119Z" fill="#7B818D"/><path d="M102.235 197.217c-8.987 1.348-14.84-4.322-19.207-7.76-5.762-4.542-10.246-2.333-10.246-2.333l6.144 11.728c9.177 8.652 18.587 6.731 24.519 3.92a11.449 11.449 0 0 0-1.21-5.555Z" fill="#2187FF"/><path d="m114.866 191.856-2.981 1.603c-3.574 2.177-6.772 3.326-9.65 3.758a11.453 11.453 0 0 1 1.21 5.562c3.78-1.785 6.143-3.92 6.143-3.92 6.752-4.032 5.278-7.003 5.278-7.003Z" fill="url(#b)"/><path d="M123.644 196.056a2.2 2.2 0 0 0-1.284-1.4l-6.048-2.432s-.092-.775 1.277-1.303c1.369-.528 1.05-2.06 1.05-2.06s-1.87.853-4.609 2.207c-1.567.774-2.446 2.14-2.911 3.168l1.557 2.048c3.727 1.12 7.499 1.334 11.303.889l-.335-1.117Z" fill="url(#c)"/><path d="M64.724 289.154a.885.885 0 0 0 .65.655c2.404.506 6.224.1 7.828-.11a.746.746 0 0 0 .618-.744c-3.928.448-7.406.349-9.096.199ZM82.69 289.112c-2.262-.064-3.432-.33-4.037-.578v.692a.448.448 0 0 0 .42.453l12.42-.08c.396 0 .628-.462.456-.826-1.614.135-5.763.44-9.258.339Z" fill="#7B818D"/><path d="M120.908 226.561s-4.817 12.978-12.143 11.386c0 0-.755 4.415.479 4.936 0 0 10.988.318 12.08-14.773l-.416-1.549Z" fill="#FFD89D"/><path d="M120.701 229.603c.021.225-.816.38-1.082-.578.073-.42.203-2.24.522-2.52 1.701-1.51 4.732-3.206 4.732-3.206a.616.616 0 0 1-.105.858l-1.513 1.022c.158.522.388.98.42 1.582.015.455-.145.898-.448 1.237-.301.345-.7.789-1.071 1.12a1.753 1.753 0 0 1-1.455.485Z" fill="#FFD89D"/><path fill-rule="evenodd" clip-rule="evenodd" d="M108.836 221.138s-2.327-2.1.664-4.379c2.81-2.139 4.863.732 3.932 2.58a.227.227 0 0 0 .153.321c.245.055.458.298.07 1.162a.224.224 0 0 0-.017.117c.004.04.019.078.044.11.344.462 1.492 2.313-1.973 2.595a.236.236 0 0 1-.171-.058l-2.702-2.448ZM96.617 224.221s-.222-2.681-1.657-3.554c-1.435-.874-4.22-1.617-5.387 1.297-.56 1.391-.373 2.053-.027 2.364a.868.868 0 0 1 .14 1.097c-.235.42-.267.944.445 1.417a.895.895 0 0 1 .397.58c.186.971 1.18 3.304 6.495.754l-.406-3.955Z" fill="#5B6475"/><path fill-rule="evenodd" clip-rule="evenodd" d="M102.763 219.401c-1.045-.448-3.262-.904-4.985 2.11a1.32 1.32 0 0 1-.507.501c-1.026.56-3.998 2.624-1.292 6.338.124.17.205.367.235.575.091.629.39 2.023 1.29 2.368.27.102.496.291.645.537.605.996 2.33 3.091 5.232.903.148-.111.318-.19.5-.231l4.008-.882a1.29 1.29 0 0 1 .644.023c.49.14 1.48.268 1.848-.884.075-.234.214-.443.402-.603.672-.571 2.1-2.121 1.019-4.293a1.306 1.306 0 0 1-.123-.785c.127-.813.193-2.619-1.496-3.398a1.254 1.254 0 0 1-.593-.56c-.56-1.083-2.398-3.86-5.631-1.82a1.291 1.291 0 0 1-1.196.101Z" fill="#5B6475"/><path fill-rule="evenodd" clip-rule="evenodd" d="m108.208 283.097-.584.675.4 1.463a1.037 1.037 0 0 0 .812.744c1.302.238 4.256.669 5.777.016 0 0 .471-3.167-4.76-2.223l-1.645-.675ZM99.074 284.78l-.309.761.126 2.746a.85.85 0 0 0 .748.774 9.968 9.968 0 0 0 2.189.116c.613-.046.997-.623.758-1.137l-.924-1.981a1.222 1.222 0 0 0-.7-.63l-1.888-.649Z" fill="#A8B2BC"/><path fill-rule="evenodd" clip-rule="evenodd" d="m101.732 231.267-.595 5.907s3.211 1.088 5.321-.14l-.572-5.93-4.154.163ZM96.584 263.601s1.524 16.989 2.53 22.187c0 0 .752.548 1.88-.16l1.367-22.667-5.778.64ZM103.355 264.621l4.175 19.025s1.136 1.177 2.613 0l-.72-19.999-6.068.974ZM98.067 237.621l-1.044.116c-2.022 2.168-5.732 17.067-7.07 20.235l-5.445-.889a.274.274 0 0 0-.322.226.273.273 0 0 0 .017.144c.242.591 1.15 2.296 4.683 2.296 1.65 0-.927 1.281.062 1.721 0 0 2.168-.782 2.172-2.156 0 0 6.22-14.167 7.499-15.659 1.278-1.493-.552-6.034-.552-6.034Z" fill="#FFD89D"/><path fill-rule="evenodd" clip-rule="evenodd" d="M97.03 237.735s5.533-2.051 12.441.072c0 0 .774 5.229.375 7.718l-11.9.431-.916-8.221ZM109.688 247.159s3.804 12.211 4.368 20.348a.76.76 0 0 1-.7.809c-.791.056-2.188.252-4.084.883-3.08 1.024-5.622.686-7.921.025-1.805-.518-6.317-.97-8.175-1.142a.762.762 0 0 1-.534-.295.75.75 0 0 1-.142-.593c.539-3.01 2.591-13.695 5.705-20.956l11.483.921Z" fill="#2187FF"/><path fill-rule="evenodd" clip-rule="evenodd" d="m109.885 245.244-.202 1.915s-3.659.014-11.746-.258l-.042-1.386s8.957.175 11.99-.271Z" fill="#015FCD"/><path fill-rule="evenodd" clip-rule="evenodd" d="M109.859 225.543c.918 3.55.651 7.631-3.527 8.54-2.891.632-5.929-2.312-6.847-5.863-.919-3.552.653-6.256 3.519-7 2.866-.745 5.936.771 6.855 4.323Z" fill="#FFD89D"/><path fill-rule="evenodd" clip-rule="evenodd" d="M109.548 226.638s.14-2.148 1.207-1.486c1.067.662-.413 3.237-1.076 3.387-.662.15-.131-1.901-.131-1.901ZM100.383 229.114s-.32-1.638-1.48-.88c-1.162.757 1.053 3.432 2.417 2.838l-.937-1.958Z" fill="#FFD89D"/><path d="M121.542 228.866c.204-.497.791-1.847 1.054-2.122.189-.199.28-.381.266-.56a.553.553 0 0 0-.237-.403l-.074-.062-1.45.776-.579.906.244.155.538-.84 1.206-.645c.038.037.06.087.063.14a.523.523 0 0 1-.186.341c-.348.363-1.034 2.025-1.12 2.212l.275.102Z" fill="#FFD89D"/><path fill-rule="evenodd" clip-rule="evenodd" d="M98.665 227.812s3.323 3.597 5.049-3.867c0 0 1.722 2.229 2.507.258 0 0 3.43 1.175 3.808-.267.378-1.442-4.635-5.354-8.667-2.547s-2.697 6.423-2.697 6.423Z" fill="#5B6475"/><defs><linearGradient id="a" x1="232.065" y1="300.556" x2="242.267" y2="204.202" gradientUnits="userSpaceOnUse"><stop stop-color="#5C5E61"/><stop offset="1" stop-color="#5C5E61"/></linearGradient><linearGradient id="b" x1="-20363.2" y1="15681.7" x2="-18603.2" y2="14347.3" gradientUnits="userSpaceOnUse"><stop stop-color="#fff"/><stop offset="1" stop-color="#EFEFF4"/></linearGradient><linearGradient id="c" x1="-20316.5" y1="12472.8" x2="-18889.4" y2="11077.3" gradientUnits="userSpaceOnUse"><stop stop-color="#fff"/><stop offset="1" stop-color="#EFEFF4"/></linearGradient></defs></svg>