<?xml version="1.0" encoding="UTF-8"?><!DOCTYPE svg PUBLIC "-//W3C//DTD SVG 1.1//EN" "http://www.w3.org/Graphics/SVG/1.1/DTD/svg11.dtd"><svg xmlns="http://www.w3.org/2000/svg" xmlns:xlink="http://www.w3.org/1999/xlink"><defs/><symbol id="arrowLeft">
    <path fill-rule="evenodd" clip-rule="evenodd" d="M14.53 18.53a.75.75 0 0 1-1.06 0l-6-6a.75.75 0 0 1 0-1.06l6-6a.75.75 0 1 1 1.06 1.06L9.06 12l5.47 5.47a.75.75 0 0 1 0 1.06Z"/>
</symbol><symbol id="arrowLink">
    <path fill-rule="evenodd" clip-rule="evenodd" d="M11.47 5.47a.75.75 0 0 1 1.06 0l6 6a.75.75 0 0 1 0 1.06l-6 6a.75.75 0 1 1-1.06-1.06l4.72-4.72H6a.75.75 0 0 1 0-1.5h10.19l-4.72-4.72a.75.75 0 0 1 0-1.06Z"/>
</symbol><symbol id="arrowRight">
    <path fill-rule="evenodd" clip-rule="evenodd" d="M8.47 5.47a.75.75 0 0 1 1.06 0l6 6a.75.75 0 0 1 0 1.06l-6 6a.75.75 0 0 1-1.06-1.06L13.94 12 8.47 6.53a.75.75 0 0 1 0-1.06Z"/>
</symbol><symbol id="location">
    <path fill-rule="evenodd" clip-rule="evenodd" d="M12 12a2 2 0 1 0 0-4 2 2 0 0 0 0 4Zm0 1.5a3.5 3.5 0 1 0 0-7 3.5 3.5 0 0 0 0 7Z"/>
    <path fill-rule="evenodd" clip-rule="evenodd" d="M16.119 16.129c1.363-1.818 2.381-3.97 2.381-6.324C18.5 6.357 15.625 3.5 12 3.5S5.5 6.357 5.5 9.805c0 2.354 1.018 4.506 2.381 6.324 1.36 1.813 2.986 3.19 4.002 3.956a.19.19 0 0 0 .117.043.19.19 0 0 0 .117-.043c1.016-.767 2.641-2.143 4.002-3.956Zm-3.099 5.153C15.176 19.655 20 15.392 20 9.805 20 5.495 16.418 2 12 2S4 5.494 4 9.805c0 5.587 4.824 9.85 6.98 11.477.61.46 1.43.46 2.04 0Z"/>
</symbol><symbol id="mail">
    <path fill-rule="evenodd" clip-rule="evenodd" d="M5 5.5h14a1.5 1.5 0 0 1 1.411.991l-7.163 4.776a2.25 2.25 0 0 1-2.496 0L3.589 6.49A1.5 1.5 0 0 1 5 5.5ZM3.5 8.235V17A1.5 1.5 0 0 0 5 18.5h14a1.5 1.5 0 0 0 1.5-1.5V8.235l-6.42 4.28c-1.26.84-2.9.84-4.16 0L3.5 8.235ZM2 7a3 3 0 0 1 3-3h14a3 3 0 0 1 3 3v10a3 3 0 0 1-3 3H5a3 3 0 0 1-3-3V7Z" fill="#000B26" fill-opacity=".32"/>
</symbol><symbol id="phone">
    <path fill-rule="evenodd" clip-rule="evenodd" d="M6.532 3.613c-.318.224-.793.621-1.372 1.301-.67.788-1.075 1.725-1.056 2.667.045 2.18 1.055 5.23 4.07 8.246 3.087 3.087 6.149 4.081 8.318 4.088.895.003 1.783-.386 2.537-1.021.706-.595 1.121-1.09 1.355-1.423a.166.166 0 0 0-.05-.058l-3.316-2.654a.25.25 0 0 0-.333.019l-.633.633c-.862.862-2.249 1.094-3.32.36A17.11 17.11 0 0 1 8.23 11.27c-.738-1.077-.506-2.472.366-3.336l.625-.62a.25.25 0 0 0 .02-.333L6.58 3.656a.184.184 0 0 0-.048-.043Zm-2.514.329c.668-.785 1.246-1.274 1.678-1.574.742-.516 1.608-.209 2.055.35l2.66 3.326a1.75 1.75 0 0 1-.134 2.336L9.652 9c-.413.409-.47 1.006-.185 1.421a15.61 15.61 0 0 0 4.111 4.112c.412.282 1.004.226 1.413-.183l.633-.633a1.75 1.75 0 0 1 2.33-.129l3.318 2.654c.569.455.87 1.331.35 2.076-.31.444-.817 1.041-1.626 1.723-.953.802-2.172 1.379-3.509 1.374-2.62-.008-6.047-1.201-9.373-4.527-3.259-3.259-4.456-6.668-4.51-9.277-.028-1.395.569-2.676 1.414-3.669Z" fill="#000B26" fill-opacity=".32"/>
</symbol></svg>